<svg width="14" height="14" viewBox="0 0 14 14" fill="none" xmlns="http://www.w3.org/2000/svg">
<path d="M5 2H3C2.44772 2 2 2.44772 2 3V5C2 5.55228 2.44772 6 3 6H5C5.55228 6 6 5.55228 6 5V3C6 2.44772 5.55228 2 5 2Z" stroke="#161719" stroke-linecap="round" stroke-linejoin="round"/>
<path d="M11 2H9C8.44772 2 8 2.44772 8 3V5C8 5.55228 8.44772 6 9 6H11C11.5523 6 12 5.55228 12 5V3C12 2.44772 11.5523 2 11 2Z" stroke="#161719" stroke-linecap="round" stroke-linejoin="round"/>
<path d="M5 8H3C2.44772 8 2 8.44772 2 9V11C2 11.5523 2.44772 12 3 12H5C5.55228 12 6 11.5523 6 11V9C6 8.44772 5.55228 8 5 8Z" stroke="#161719" stroke-linecap="round" stroke-linejoin="round"/>
<path d="M11 8H9C8.44772 8 8 8.44772 8 9V11C8 11.5523 8.44772 12 9 12H11C11.5523 12 12 11.5523 12 11V9C12 8.44772 11.5523 8 11 8Z" stroke="#161719" stroke-linecap="round" stroke-linejoin="round"/>
</svg>
